<svg id="Page-1" xmlns="http://www.w3.org/2000/svg" width="190" height="100" viewBox="0 0 190 100">
  <g id="ar-badge" transform="translate(-2190 -26)">
    <g id="Group-Copy" transform="translate(2190 26)">
      <g id="Group" opacity="0.5">
        <g id="Path">
          <path id="Path_1" data-name="Path 1" d="M178,100H11.54A11.57,11.57,0,0,1,0,88.46V11.54A11.57,11.57,0,0,1,11.54,0H178.46A11.57,11.57,0,0,1,190,11.54V88.46A11.58,11.58,0,0,1,178.45,100" fill="#fff"/>
        </g>
      </g>
      <g id="Group-2" data-name="Group" transform="translate(19 15)" opacity="0.6">
        <g id="Path-2" data-name="Path">
          <path id="Path_2" data-name="Path 2" d="M38.85,8.5a1.44,1.44,0,0,1-.72-.19L30.5,3.89,22.84,8.31a1.443,1.443,0,1,1-1.44-2.5L29.79,1a1.43,1.43,0,0,1,1.44,0l8.35,4.83a1.44,1.44,0,0,1-.72,2.69"/>
          <path id="Path_3" data-name="Path 3" d="M30.5,46.49A1.44,1.44,0,0,1,29.06,45V35.38a1.44,1.44,0,1,1,2.88,0V45a1.44,1.44,0,0,1-1.44,1.44"/>
          <path id="Path_4" data-name="Path 4" d="M1.8,29.89A1.44,1.44,0,0,1,.36,28.45V18.79a1.44,1.44,0,1,1,2.88,0v9.66A1.44,1.44,0,0,1,1.8,29.89"/>
          <path id="Path_5" data-name="Path 5" d="M59.17,29.89a1.44,1.44,0,0,1-1.44-1.44V18.79a1.44,1.44,0,1,1,2.88,0v9.66a1.44,1.44,0,0,1-1.44,1.44"/>
          <path id="Path_6" data-name="Path 6" d="M59.18,53.41A1.44,1.44,0,0,1,57.74,52V42.3a1.44,1.44,0,0,1,1.44-1.44h0a1.44,1.44,0,0,1,1.44,1.44V52a1.44,1.44,0,0,1-1.44,1.44Z"/>
          <path id="Path_7" data-name="Path 7" d="M1.8,53.41A1.44,1.44,0,0,1,.36,52V42.3a1.44,1.44,0,0,1,2.88,0V52A1.44,1.44,0,0,1,1.8,53.44"/>
          <path id="Path_8" data-name="Path 8" d="M30.5,14.2a1.44,1.44,0,0,1-1.44-1.44V2.23a1.44,1.44,0,0,1,2.88,0V12.76A1.44,1.44,0,0,1,30.5,14.2"/>
          <path id="Path_9" data-name="Path 9" d="M30.5,70a1.44,1.44,0,0,1-1.44-1.44V58.91a1.44,1.44,0,1,1,2.88,0v9.66A1.44,1.44,0,0,1,30.5,70"/>
          <path id="Path_10" data-name="Path 10" d="M30.5,70a1.45,1.45,0,0,1-.72-.19L21.38,65a1.443,1.443,0,0,1,1.44-2.5l7.69,4.45,7.58-4.39A1.44,1.44,0,0,1,39.53,65l-8.3,4.81a1.43,1.43,0,0,1-.72.19"/>
          <path id="Path_11" data-name="Path 11" d="M30.5,36.82a1.45,1.45,0,0,1-.72-.19L21.4,31.79a1.443,1.443,0,0,1,1.44-2.5l7.66,4.42,7.63-4.42a1.44,1.44,0,0,1,1.44,2.49l-8.35,4.84a1.43,1.43,0,0,1-.72.19"/>
          <path id="Path_12" data-name="Path 12" d="M50.81,25.07a1.44,1.44,0,0,1-.72-2.69l8.36-4.83a1.443,1.443,0,0,1,1.44,2.5l-8.36,4.83a1.44,1.44,0,0,1-.72.19"/>
          <path id="Path_13" data-name="Path 13" d="M59.17,20.23a1.43,1.43,0,0,1-.72-.19L50.08,15.2a1.443,1.443,0,1,1,1.44-2.5l8.37,4.84a1.44,1.44,0,0,1-.72,2.69"/>
          <path id="Path_14" data-name="Path 14" d="M10.16,25.07a1.44,1.44,0,0,1-.72-.19L1.08,20a1.443,1.443,0,1,1,1.44-2.5l8.37,4.83a1.44,1.44,0,0,1-.72,2.69"/>
          <path id="Path_15" data-name="Path 15" d="M1.8,20.23a1.44,1.44,0,0,1-.72-2.69l8.36-4.82a1.443,1.443,0,1,1,1.44,2.5L2.52,20a1.45,1.45,0,0,1-.72.19"/>
          <path id="Path_16" data-name="Path 16" d="M50.8,58.24a1.44,1.44,0,0,1-.72-2.69l8.38-4.83a1.443,1.443,0,0,1,1.44,2.5l-8.38,4.83a1.44,1.44,0,0,1-.72.19"/>
          <path id="Path_17" data-name="Path 17" d="M59.17,53.41a1.43,1.43,0,0,1-.72-.19l-8.37-4.83a1.443,1.443,0,1,1,1.44-2.5l8.37,4.83a1.44,1.44,0,0,1-.72,2.69"/>
          <path id="Path_18" data-name="Path 18" d="M10.16,58.25a1.44,1.44,0,0,1-.72-.19L1.07,53.22a1.443,1.443,0,1,1,1.44-2.5l8.37,4.84a1.44,1.44,0,0,1-.72,2.69"/>
          <path id="Path_19" data-name="Path 19" d="M1.8,53.41a1.44,1.44,0,0,1-.72-2.69l8.35-4.84a1.443,1.443,0,1,1,1.44,2.5L2.52,53.21a1.44,1.44,0,0,1-.72.19"/>
          <g id="Group_2" data-name="Group 2" transform="translate(0 1)" opacity="0.2">
            <g id="Group_1" data-name="Group 1">
              <path id="Path_20" data-name="Path 20" d="M1.8,18.61a.82.82,0,0,1-.41-1.53L30.09.51a.82.82,0,0,1,.82,1.42L2.21,18.5a.82.82,0,0,1-.41.11"/>
            </g>
          </g>
          <g id="Group_4" data-name="Group 4" transform="translate(0 17)" opacity="0.2">
            <g id="Group_3" data-name="Group 3">
              <path id="Path_21" data-name="Path 21" d="M1.8,35.79a.82.82,0,0,1-.41-1.53L58.76,1.08a.82.82,0,0,1,.82,1.42L2.21,35.68a.82.82,0,0,1-.41.11"/>
            </g>
          </g>
          <g id="Group_6" data-name="Group 6" transform="translate(29 1)" opacity="0.2">
            <g id="Group_5" data-name="Group 5">
              <path id="Path_22" data-name="Path 22" d="M30.17,18.61a.82.82,0,0,1-.41-.11L1.09,1.94A.82.82,0,0,1,1.91.52L30.58,17.09a.82.82,0,0,1-.41,1.53"/>
            </g>
          </g>
          <g id="Group_8" data-name="Group 8" transform="translate(0 17)" opacity="0.2">
            <g id="Group_7" data-name="Group 7">
              <path id="Path_23" data-name="Path 23" d="M59.17,35.79a.81.81,0,0,1-.41-.11L1.39,2.5a.82.82,0,0,1,.82-1.42L59.59,34.26a.82.82,0,0,1-.41,1.53"/>
            </g>
          </g>
          <g id="Group_10" data-name="Group 10" transform="translate(0 51)" opacity="0.2">
            <g id="Group_9" data-name="Group 9">
              <path id="Path_24" data-name="Path 24" d="M30.5,18.4a.82.82,0,0,1-.41-.11L1.39,1.68A.82.82,0,0,1,2.21.26L30.92,16.87a.82.82,0,0,1-.41,1.53"/>
            </g>
          </g>
          <g id="Group_12" data-name="Group 12" transform="translate(29 51)" opacity="0.2">
            <g id="Group_11" data-name="Group 11">
              <path id="Path_25" data-name="Path 25" d="M1.51,18.4a.82.82,0,0,1-.41-1.53L29.76.26a.82.82,0,0,1,.82,1.42L1.92,18.29a.82.82,0,0,1-.41.11"/>
            </g>
          </g>
          <g id="Group_14" data-name="Group 14" transform="translate(1 17)" opacity="0.2">
            <g id="Group_13" data-name="Group 13">
              <path id="Path_26" data-name="Path 26" d="M.8,35.79A.82.82,0,0,1,0,35V1.79a.82.82,0,0,1,1.64,0V35a.82.82,0,0,1-.82.82"/>
            </g>
          </g>
          <g id="Group_16" data-name="Group 16" transform="translate(58 17)" opacity="0.2">
            <g id="Group_15" data-name="Group 15">
              <path id="Path_27" data-name="Path 27" d="M1.18,35.79a.82.82,0,0,1-.82-.82V1.79A.82.82,0,0,1,2,1.79V35a.82.82,0,0,1-.82.82"/>
            </g>
          </g>
          <g id="Group_18" data-name="Group 18" transform="translate(29 1)" opacity="0.2">
            <g id="Group_17" data-name="Group 17">
              <path id="Path_28" data-name="Path 28" d="M1.5,68.3a.82.82,0,0,1-.82-.82V1.23a.82.82,0,1,1,1.64,0V67.48a.82.82,0,0,1-.82.82"/>
            </g>
          </g>
        </g>
      </g>
      <g id="Group-3" data-name="Group" transform="translate(100 30)" opacity="0.6">
        <g id="Shape">
          <path id="Path_29" data-name="Path 29" d="M24.53,27.49H9.44L5.63,38.35h-5L14.63.41h4.68l14,37.94h-5Zm-13.7-4H23.14L17.2,6.53h-.42Z"/>
          <path id="Path_30" data-name="Path 30" d="M44.7,38.35H40V.41H54.49c7.31,0,12.09,4.47,12.09,11.31,0,5.28-2.87,9.39-7.62,10.88l8.78,15.75H62.19l-8.12-15H44.7Zm0-19.22H54c4.86,0,7.63-2.6,7.63-7.26s-2.94-7.26-7.84-7.26H44.7Z"/>
        </g>
      </g>
    </g>
  </g>
</svg>
